<svg id="mermaid-1789124505615" width="1837.6927490234375" xmlns="http://www.w3.org/2000/svg" xmlns:xlink="http://www.w3.org/1999/xlink" height="1822" viewBox="-8 -8 1837.6927490234375 1822" role="graphics-document document" aria-roledescription="flowchart-v2"><style>#mermaid-1789124505615{font-family:"trebuchet ms",verdana,arial,sans-serif;font-size:16px;fill:#333;}#mermaid-1789124505615 .error-icon{fill:#552222;}#mermaid-1789124505615 .error-text{fill:#552222;stroke:#552222;}#mermaid-1789124505615 .edge-thickness-normal{stroke-width:2px;}#mermaid-1789124505615 .edge-thickness-thick{stroke-width:3.5px;}#mermaid-1789124505615 .edge-pattern-solid{stroke-dasharray:0;}#mermaid-1789124505615 .edge-pattern-dashed{stroke-dasharray:3;}#mermaid-1789124505615 .edge-pattern-dotted{stroke-dasharray:2;}#mermaid-1789124505615 .marker{fill:#333333;stroke:#333333;}#mermaid-1789124505615 .marker.cross{stroke:#333333;}#mermaid-1789124505615 svg{font-family:"trebuchet ms",verdana,arial,sans-serif;font-size:16px;}#mermaid-1789124505615 .label{font-family:"trebuchet ms",verdana,arial,sans-serif;color:#333;}#mermaid-1789124505615 .cluster-label text{fill:#333;}#mermaid-1789124505615 .cluster-label span,#mermaid-1789124505615 p{color:#333;}#mermaid-1789124505615 .label text,#mermaid-1789124505615 span,#mermaid-1789124505615 p{fill:#333;color:#333;}#mermaid-1789124505615 .node rect,#mermaid-1789124505615 .node circle,#mermaid-1789124505615 .node ellipse,#mermaid-1789124505615 .node polygon,#mermaid-1789124505615 .node path{fill:#ECECFF;stroke:#9370DB;stroke-width:1px;}#mermaid-1789124505615 .flowchart-label text{text-anchor:middle;}#mermaid-1789124505615 .node .katex path{fill:#000;stroke:#000;stroke-width:1px;}#mermaid-1789124505615 .node .label{text-align:center;}#mermaid-1789124505615 .node.clickable{cursor:pointer;}#mermaid-1789124505615 .arrowheadPath{fill:#333333;}#mermaid-1789124505615 .edgePath .path{stroke:#333333;stroke-width:2.0px;}#mermaid-1789124505615 .flowchart-link{stroke:#333333;fill:none;}#mermaid-1789124505615 .edgeLabel{background-color:#e8e8e8;text-align:center;}#mermaid-1789124505615 .edgeLabel rect{opacity:0.5;background-color:#e8e8e8;fill:#e8e8e8;}#mermaid-1789124505615 .labelBkg{background-color:rgba(232, 232, 232, 0.5);}#mermaid-1789124505615 .cluster rect{fill:#ffffde;stroke:#aaaa33;stroke-width:1px;}#mermaid-1789124505615 .cluster text{fill:#333;}#mermaid-1789124505615 .cluster span,#mermaid-1789124505615 p{color:#333;}#mermaid-1789124505615 div.mermaidTooltip{position:absolute;text-align:center;max-width:200px;padding:2px;font-family:"trebuchet ms",verdana,arial,sans-serif;font-size:12px;background:hsl(80, 100%, 96.2745098039%);border:1px solid #aaaa33;border-radius:2px;pointer-events:none;z-index:100;}#mermaid-1789124505615 .flowchartTitleText{text-anchor:middle;font-size:18px;fill:#333;}#mermaid-1789124505615 :root{--mermaid-font-family:"trebuchet ms",verdana,arial,sans-serif;}#mermaid-1789124505615 .terminator&gt;*{fill:rgb(4, 120, 87)!important;stroke:rgb(6, 95, 70)!important;stroke-width:2.5px!important;color:rgb(255, 255, 255)!important;font-weight:bold!important;}#mermaid-1789124505615 .terminator span{fill:rgb(4, 120, 87)!important;stroke:rgb(6, 95, 70)!important;stroke-width:2.5px!important;color:rgb(255, 255, 255)!important;font-weight:bold!important;}#mermaid-1789124505615 .terminator tspan{fill:rgb(255, 255, 255)!important;}#mermaid-1789124505615 .process&gt;*{fill:rgb(255, 255, 255)!important;stroke:rgb(2, 132, 199)!important;stroke-width:2px!important;color:rgb(15, 23, 42)!important;}#mermaid-1789124505615 .process span{fill:rgb(255, 255, 255)!important;stroke:rgb(2, 132, 199)!important;stroke-width:2px!important;color:rgb(15, 23, 42)!important;}#mermaid-1789124505615 .process tspan{fill:rgb(15, 23, 42)!important;}#mermaid-1789124505615 .inputOutput&gt;*{fill:rgb(239, 246, 255)!important;stroke:rgb(37, 99, 235)!important;stroke-width:2px!important;color:rgb(30, 64, 175)!important;}#mermaid-1789124505615 .inputOutput span{fill:rgb(239, 246, 255)!important;stroke:rgb(37, 99, 235)!important;stroke-width:2px!important;color:rgb(30, 64, 175)!important;}#mermaid-1789124505615 .inputOutput tspan{fill:rgb(30, 64, 175)!important;}#mermaid-1789124505615 .decision&gt;*{fill:rgb(254, 243, 199)!important;stroke:rgb(217, 119, 6)!important;stroke-width:2.5px!important;color:rgb(146, 64, 14)!important;font-weight:bold!important;}#mermaid-1789124505615 .decision span{fill:rgb(254, 243, 199)!important;stroke:rgb(217, 119, 6)!important;stroke-width:2.5px!important;color:rgb(146, 64, 14)!important;font-weight:bold!important;}#mermaid-1789124505615 .decision tspan{fill:rgb(146, 64, 14)!important;}#mermaid-1789124505615 .successProcess&gt;*{fill:rgb(240, 253, 244)!important;stroke:rgb(22, 163, 74)!important;stroke-width:2px!important;color:rgb(20, 83, 45)!important;font-weight:bold!important;}#mermaid-1789124505615 .successProcess span{fill:rgb(240, 253, 244)!important;stroke:rgb(22, 163, 74)!important;stroke-width:2px!important;color:rgb(20, 83, 45)!important;font-weight:bold!important;}#mermaid-1789124505615 .successProcess tspan{fill:rgb(20, 83, 45)!important;}#mermaid-1789124505615 .warnProcess&gt;*{fill:rgb(254, 242, 242)!important;stroke:rgb(220, 38, 38)!important;stroke-width:2px!important;color:rgb(153, 27, 27)!important;}#mermaid-1789124505615 .warnProcess span{fill:rgb(254, 242, 242)!important;stroke:rgb(220, 38, 38)!important;stroke-width:2px!important;color:rgb(153, 27, 27)!important;}#mermaid-1789124505615 .warnProcess tspan{fill:rgb(153, 27, 27)!important;}#mermaid-1789124505615 .doc&gt;*{fill:rgb(253, 244, 255)!important;stroke:rgb(168, 85, 247)!important;stroke-width:2px!important;color:rgb(107, 33, 168)!important;}#mermaid-1789124505615 .doc span{fill:rgb(253, 244, 255)!important;stroke:rgb(168, 85, 247)!important;stroke-width:2px!important;color:rgb(107, 33, 168)!important;}#mermaid-1789124505615 .doc tspan{fill:rgb(107, 33, 168)!important;}</style><g><marker id="mermaid-1789124505615_flowchart-pointEnd" class="marker flowchart" viewBox="0 0 10 10" refX="6" refY="5" markerUnits="userSpaceOnUse" markerWidth="12" markerHeight="12" orient="auto"><path d="M 0 0 L 10 5 L 0 10 z" class="arrowMarkerPath" style="stroke-width: 1; stroke-dasharray: 1, 0;"></path></marker><marker id="mermaid-1789124505615_flowchart-pointStart" class="marker flowchart" viewBox="0 0 10 10" refX="4.5" refY="5" markerUnits="userSpaceOnUse" markerWidth="12" markerHeight="12" orient="auto"><path d="M 0 5 L 10 10 L 10 0 z" class="arrowMarkerPath" style="stroke-width: 1; stroke-dasharray: 1, 0;"></path></marker><marker id="mermaid-1789124505615_flowchart-circleEnd" class="marker flowchart" viewBox="0 0 10 10" refX="11" refY="5" markerUnits="userSpaceOnUse" markerWidth="11" markerHeight="11" orient="auto"><circle cx="5" cy="5" r="5" class="arrowMarkerPath" style="stroke-width: 1; stroke-dasharray: 1, 0;"></circle></marker><marker id="mermaid-1789124505615_flowchart-circleStart" class="marker flowchart" viewBox="0 0 10 10" refX="-1" refY="5" markerUnits="userSpaceOnUse" markerWidth="11" markerHeight="11" orient="auto"><circle cx="5" cy="5" r="5" class="arrowMarkerPath" style="stroke-width: 1; stroke-dasharray: 1, 0;"></circle></marker><marker id="mermaid-1789124505615_flowchart-crossEnd" class="marker cross flowchart" viewBox="0 0 11 11" refX="12" refY="5.2" markerUnits="userSpaceOnUse" markerWidth="11" markerHeight="11" orient="auto"><path d="M 1,1 l 9,9 M 10,1 l -9,9" class="arrowMarkerPath" style="stroke-width: 2; stroke-dasharray: 1, 0;"></path></marker><marker id="mermaid-1789124505615_flowchart-crossStart" class="marker cross flowchart" viewBox="0 0 11 11" refX="-1" refY="5.2" markerUnits="userSpaceOnUse" markerWidth="11" markerHeight="11" orient="auto"><path d="M 1,1 l 9,9 M 10,1 l -9,9" class="arrowMarkerPath" style="stroke-width: 2; stroke-dasharray: 1, 0;"></path></marker><g class="root"><g class="clusters"></g><g class="edgePaths"><path d="M467.13,36L467.13,40.167C467.13,44.333,467.13,52.667,467.196,60.2C467.262,67.734,467.394,74.467,467.46,77.834L467.526,81.201" id="L-Start-SelectService-0" class="edge-thickness-normal edge-pattern-solid flowchart-link LS-Start LE-SelectService" style="fill:none;" marker-end="url(#mermaid-1789124505615_flowchart-pointEnd)"></path><path d="M404.31,217.102L373.384,233.405C342.457,249.709,280.603,282.315,249.677,307.369C218.75,332.422,218.75,349.922,218.75,367.422C218.75,384.922,218.75,402.422,218.821,416.205C218.892,429.989,219.034,440.056,219.104,445.089L219.175,450.122" id="L-SelectService-ReqService-0" class="edge-thickness-normal edge-pattern-solid flowchart-link LS-SelectService LE-ReqService" style="fill:none;" marker-end="url(#mermaid-1789124505615_flowchart-pointEnd)"></path><path d="M219.25,490.422L219.167,494.505C219.083,498.589,218.917,506.755,218.833,514.122C218.75,521.489,218.75,528.055,218.75,531.339L218.75,534.622" id="L-ReqService-FillUnifiedForm-0" class="edge-thickness-normal edge-pattern-solid flowchart-link LS-ReqService LE-FillUnifiedForm" style="fill:none;" marker-end="url(#mermaid-1789124505615_flowchart-pointEnd)"></path><path d="M218.75,574.922L218.75,579.089C218.75,583.255,218.75,591.589,219.158,600.39C219.566,609.191,220.381,618.461,220.789,623.096L221.197,627.731" id="L-FillUnifiedForm-WaitApproval-0" class="edge-thickness-normal edge-pattern-solid flowchart-link LS-FillUnifiedForm LE-WaitApproval" style="fill:none;" marker-end="url(#mermaid-1789124505615_flowchart-pointEnd)"></path><path d="M229.25,845.672L229.167,851.422C229.083,857.172,228.917,868.672,240.425,892.351C251.934,916.029,275.117,951.887,286.709,969.816L298.301,987.745" id="L-WaitApproval-RejectReq-0" class="edge-thickness-normal edge-pattern-solid flowchart-link LS-WaitApproval LE-RejectReq" style="fill:none;" marker-end="url(#mermaid-1789124505615_flowchart-pointEnd)"></path><path d="M347.201,992.195L382.867,973.525C418.533,954.854,489.865,917.513,525.531,874.655C561.197,831.797,561.197,783.422,561.197,736.714C561.197,690.005,561.197,644.964,528.5,618.385C495.803,591.806,430.41,583.69,397.714,579.633L365.017,575.575" id="L-RejectReq-FillUnifiedForm-0" class="edge-thickness-normal edge-pattern-dotted flowchart-link LS-RejectReq LE-FillUnifiedForm" style="fill:none;stroke-width:2px;stroke-dasharray:3;" marker-end="url(#mermaid-1789124505615_flowchart-pointEnd)"></path><path d="M315.929,758.993L390.822,779.189C465.714,799.386,615.498,839.779,690.39,877.763C765.283,915.746,765.283,951.321,765.283,969.108L765.283,986.895" id="L-WaitApproval-ApproveReq-0" class="edge-thickness-normal edge-pattern-solid flowchart-link LS-WaitApproval LE-ApproveReq" style="fill:none;" marker-end="url(#mermaid-1789124505615_flowchart-pointEnd)"></path><path d="M765.283,1028.195L765.283,1046.866C765.283,1065.536,765.283,1102.878,765.283,1126.582C765.283,1150.285,765.283,1160.352,765.283,1165.385L765.283,1170.419" id="L-ApproveReq-PickItems-0" class="edge-thickness-normal edge-pattern-solid flowchart-link LS-ApproveReq LE-PickItems" style="fill:none;" marker-end="url(#mermaid-1789124505615_flowchart-pointEnd)"></path><path d="M765.283,1210.719L765.283,1214.969C765.283,1219.219,765.283,1227.719,765.283,1235.335C765.283,1242.952,765.283,1249.685,765.283,1253.052L765.283,1256.419" id="L-PickItems-UseItems-0" class="edge-thickness-normal edge-pattern-solid flowchart-link LS-PickItems LE-UseItems" style="fill:none;" marker-end="url(#mermaid-1789124505615_flowchart-pointEnd)"></path><path d="M765.283,1296.719L765.283,1300.969C765.283,1305.219,765.283,1313.719,765.283,1321.252C765.283,1328.785,765.283,1335.352,765.283,1338.635L765.283,1341.919" id="L-UseItems-ReturnItems-0" class="edge-thickness-normal edge-pattern-solid flowchart-link LS-UseItems LE-ReturnItems" style="fill:none;" marker-end="url(#mermaid-1789124505615_flowchart-pointEnd)"></path><path d="M765.283,1382.219L765.283,1386.385C765.283,1390.552,765.283,1398.885,765.349,1406.419C765.415,1413.952,765.547,1420.686,765.613,1424.053L765.679,1427.42" id="L-ReturnItems-CheckCondition-0" class="edge-thickness-normal edge-pattern-solid flowchart-link LS-ReturnItems LE-CheckCondition" style="fill:none;" marker-end="url(#mermaid-1789124505615_flowchart-pointEnd)"></path><path d="M707.028,1556.746L678.814,1572.288C650.6,1587.83,594.172,1618.915,565.958,1639.408C537.743,1659.9,537.743,1669.8,537.743,1674.75L537.743,1679.7" id="L-CheckCondition-ReturnOk-0" class="edge-thickness-normal edge-pattern-solid flowchart-link LS-CheckCondition LE-ReturnOk" style="fill:none;" marker-end="url(#mermaid-1789124505615_flowchart-pointEnd)"></path><path d="M824.537,1556.746L852.584,1572.288C880.632,1587.83,936.727,1618.915,964.774,1639.408C992.822,1659.9,992.822,1669.8,992.822,1674.75L992.822,1679.7" id="L-CheckCondition-ReturnIssue-0" class="edge-thickness-normal edge-pattern-solid flowchart-link LS-CheckCondition LE-ReturnIssue" style="fill:none;" marker-end="url(#mermaid-1789124505615_flowchart-pointEnd)"></path><path d="M526.728,221.324L551.124,236.923C575.519,252.523,624.31,283.722,648.777,304.356C673.243,324.989,673.385,335.056,673.456,340.089L673.527,345.122" id="L-SelectService-KitService-0" class="edge-thickness-normal edge-pattern-solid flowchart-link LS-SelectService LE-KitService" style="fill:none;" marker-end="url(#mermaid-1789124505615_flowchart-pointEnd)"></path><path d="M673.602,385.422L673.518,391.172C673.435,396.922,673.268,408.422,673.185,419.122C673.102,429.822,673.102,439.722,673.102,444.672L673.102,449.622" id="L-KitService-SelectKit-0" class="edge-thickness-normal edge-pattern-solid flowchart-link LS-KitService LE-SelectKit" style="fill:none;" marker-end="url(#mermaid-1789124505615_flowchart-pointEnd)"></path><path d="M673.102,489.922L673.102,494.089C673.102,498.255,673.102,506.589,673.102,514.039C673.102,521.489,673.102,528.055,673.102,531.339L673.102,534.622" id="L-SelectKit-OneClickReq-0" class="edge-thickness-normal edge-pattern-solid flowchart-link LS-SelectKit LE-OneClickReq" style="fill:none;" marker-end="url(#mermaid-1789124505615_flowchart-pointEnd)"></path><path d="M588.29,574.922L568.097,579.089C547.903,583.255,507.517,591.589,460.158,611.281C412.799,630.973,358.467,662.025,331.302,677.551L304.136,693.077" id="L-OneClickReq-WaitApproval-0" class="edge-thickness-normal edge-pattern-solid flowchart-link LS-OneClickReq LE-WaitApproval" style="fill:none;" marker-end="url(#mermaid-1789124505615_flowchart-pointEnd)"></path><path d="M550.941,197.111L671.206,216.746C791.47,236.381,1031.999,275.652,1152.264,304.037C1272.529,332.422,1272.529,349.922,1272.529,367.422C1272.529,384.922,1272.529,402.422,1272.529,419.922C1272.529,437.422,1272.529,454.922,1272.529,470.755C1272.529,486.589,1272.529,500.755,1272.595,511.205C1272.661,521.656,1272.793,528.389,1272.859,531.756L1272.925,535.123" id="L-SelectService-BookingService-0" class="edge-thickness-normal edge-pattern-solid flowchart-link LS-SelectService LE-BookingService" style="fill:none;" marker-end="url(#mermaid-1789124505615_flowchart-pointEnd)"></path><path d="M1273.029,575.422L1272.945,579.505C1272.862,583.589,1272.695,591.755,1272.612,614.559C1272.529,637.364,1272.529,674.805,1272.529,693.526L1272.529,712.247" id="L-BookingService-SelectSlot-0" class="edge-thickness-normal edge-pattern-solid flowchart-link LS-BookingService LE-SelectSlot" style="fill:none;" marker-end="url(#mermaid-1789124505615_flowchart-pointEnd)"></path><path d="M1264.689,752.547L1255.16,773.818C1245.632,795.089,1226.574,837.63,1217.117,863.934C1207.659,890.239,1207.8,900.306,1207.871,905.339L1207.942,910.372" id="L-SelectSlot-CheckSlot-0" class="edge-thickness-normal edge-pattern-solid flowchart-link LS-SelectSlot LE-CheckSlot" style="fill:none;" marker-end="url(#mermaid-1789124505615_flowchart-pointEnd)"></path><path d="M1208.017,1105.719L1207.934,1111.469C1207.85,1117.219,1207.684,1128.719,1214.071,1139.744C1220.458,1150.769,1233.4,1161.319,1239.871,1166.595L1246.341,1171.87" id="L-CheckSlot-SlotFull-0" class="edge-thickness-normal edge-pattern-solid flowchart-link LS-CheckSlot LE-SlotFull" style="fill:none;" marker-end="url(#mermaid-1789124505615_flowchart-pointEnd)"></path><path d="M1324.702,1175.219L1341.61,1169.385C1358.518,1163.552,1392.334,1151.885,1409.242,1124.382C1426.15,1096.878,1426.15,1053.536,1426.15,1010.195C1426.15,966.854,1426.15,923.513,1404.276,881.178C1382.402,838.843,1338.654,797.515,1316.78,776.851L1294.906,756.186" id="L-SlotFull-SelectSlot-0" class="edge-thickness-normal edge-pattern-dotted flowchart-link LS-SlotFull LE-SelectSlot" style="fill:none;stroke-width:2px;stroke-dasharray:3;" marker-end="url(#mermaid-1789124505615_flowchart-pointEnd)"></path><path d="M1280.349,1033.387L1337.289,1051.192C1394.229,1068.997,1508.109,1104.608,1565.05,1127.447C1621.99,1150.285,1621.99,1160.352,1621.99,1165.385L1621.99,1170.419" id="L-CheckSlot-ConfirmBooking-0" class="edge-thickness-normal edge-pattern-solid flowchart-link LS-CheckSlot LE-ConfirmBooking" style="fill:none;" marker-end="url(#mermaid-1789124505615_flowchart-pointEnd)"></path><path d="M1621.99,1210.719L1621.99,1214.969C1621.99,1219.219,1621.99,1227.719,1621.99,1235.252C1621.99,1242.785,1621.99,1249.352,1621.99,1252.635L1621.99,1255.919" id="L-ConfirmBooking-GetTicket-0" class="edge-thickness-normal edge-pattern-solid flowchart-link LS-ConfirmBooking LE-GetTicket" style="fill:none;" marker-end="url(#mermaid-1789124505615_flowchart-pointEnd)"></path><path d="M1621.99,1297.219L1621.99,1301.385C1621.99,1305.552,1621.99,1313.885,1621.99,1321.335C1621.99,1328.785,1621.99,1335.352,1621.99,1338.635L1621.99,1341.919" id="L-GetTicket-ArriveLab-0" class="edge-thickness-normal edge-pattern-solid flowchart-link LS-GetTicket LE-ArriveLab" style="fill:none;" marker-end="url(#mermaid-1789124505615_flowchart-pointEnd)"></path><path d="M1621.99,1382.219L1621.99,1386.385C1621.99,1390.552,1621.99,1398.885,1621.99,1418.651C1621.99,1438.416,1621.99,1469.613,1621.99,1485.211L1621.99,1500.809" id="L-ArriveLab-ScanQR-0" class="edge-thickness-normal edge-pattern-solid flowchart-link LS-ArriveLab LE-ScanQR" style="fill:none;" marker-end="url(#mermaid-1789124505615_flowchart-pointEnd)"></path><path d="M1621.99,1541.109L1621.99,1559.258C1621.99,1577.406,1621.99,1613.703,1621.99,1636.802C1621.99,1659.9,1621.99,1669.8,1621.99,1674.75L1621.99,1679.7" id="L-ScanQR-CompletePractice-0" class="edge-thickness-normal edge-pattern-solid flowchart-link LS-ScanQR LE-CompletePractice" style="fill:none;" marker-end="url(#mermaid-1789124505615_flowchart-pointEnd)"></path><path d="M537.743,1720L537.743,1724.167C537.743,1728.333,537.743,1736.667,589.881,1745.76C642.019,1754.853,746.294,1764.706,798.431,1769.632L850.569,1774.559" id="L-ReturnOk-EndSuccess-0" class="edge-thickness-normal edge-pattern-solid flowchart-link LS-ReturnOk LE-EndSuccess" style="fill:none;" marker-end="url(#mermaid-1789124505615_flowchart-pointEnd)"></path><path d="M992.822,1720L992.822,1724.167C992.822,1728.333,992.822,1736.667,992.822,1744.117C992.822,1751.567,992.822,1758.133,992.822,1761.417L992.822,1764.7" id="L-ReturnIssue-EndSuccess-0" class="edge-thickness-normal edge-pattern-solid flowchart-link LS-ReturnIssue LE-EndSuccess" style="fill:none;" marker-end="url(#mermaid-1789124505615_flowchart-pointEnd)"></path><path d="M1621.99,1720L1621.99,1724.167C1621.99,1728.333,1621.99,1736.667,1540.839,1746.38C1459.688,1756.092,1297.387,1767.185,1216.236,1772.731L1135.086,1778.277" id="L-CompletePractice-EndSuccess-0" class="edge-thickness-normal edge-pattern-solid flowchart-link LS-CompletePractice LE-EndSuccess" style="fill:none;" marker-end="url(#mermaid-1789124505615_flowchart-pointEnd)"></path></g><g class="edgeLabels"><g class="edgeLabel"><g class="label" transform="translate(0, 0)"><foreignObject width="0" height="0"><div xmlns="http://www.w3.org/1999/xhtml" style="display: inline-block; white-space: nowrap;"><span class="edgeLabel"></span></div></foreignObject></g></g><g class="edgeLabel" transform="translate(218.75, 367.421875)"><g class="label" transform="translate(-75.234375, -10)"><foreignObject width="150.46875" height="20"><div xmlns="http://www.w3.org/1999/xhtml" style="display: inline-block; white-space: nowrap;"><span class="edgeLabel">ต้องการอุปกรณ์รายวิชา</span></div></foreignObject></g></g><g class="edgeLabel"><g class="label" transform="translate(0, 0)"><foreignObject width="0" height="0"><div xmlns="http://www.w3.org/1999/xhtml" style="display: inline-block; white-space: nowrap;"><span class="edgeLabel"></span></div></foreignObject></g></g><g class="edgeLabel"><g class="label" transform="translate(0, 0)"><foreignObject width="0" height="0"><div xmlns="http://www.w3.org/1999/xhtml" style="display: inline-block; white-space: nowrap;"><span class="edgeLabel"></span></div></foreignObject></g></g><g class="edgeLabel" transform="translate(228.75, 880.171875)"><g class="label" transform="translate(-28.2578125, -10)"><foreignObject width="56.515625" height="20"><div xmlns="http://www.w3.org/1999/xhtml" style="display: inline-block; white-space: nowrap;"><span class="edgeLabel">ไม่อนุมัติ</span></div></foreignObject></g></g><g class="edgeLabel" transform="translate(561.1966094970703, 735.046875)"><g class="label" transform="translate(-23.0078125, -10)"><foreignObject width="46.015625" height="20"><div xmlns="http://www.w3.org/1999/xhtml" style="display: inline-block; white-space: nowrap;"><span class="edgeLabel">ปรับแก้</span></div></foreignObject></g></g><g class="edgeLabel" transform="translate(765.2825469970703, 880.171875)"><g class="label" transform="translate(-19.375, -10)"><foreignObject width="38.75" height="20"><div xmlns="http://www.w3.org/1999/xhtml" style="display: inline-block; white-space: nowrap;"><span class="edgeLabel">อนุมัติ</span></div></foreignObject></g></g><g class="edgeLabel"><g class="label" transform="translate(0, 0)"><foreignObject width="0" height="0"><div xmlns="http://www.w3.org/1999/xhtml" style="display: inline-block; white-space: nowrap;"><span class="edgeLabel"></span></div></foreignObject></g></g><g class="edgeLabel"><g class="label" transform="translate(0, 0)"><foreignObject width="0" height="0"><div xmlns="http://www.w3.org/1999/xhtml" style="display: inline-block; white-space: nowrap;"><span class="edgeLabel"></span></div></foreignObject></g></g><g class="edgeLabel"><g class="label" transform="translate(0, 0)"><foreignObject width="0" height="0"><div xmlns="http://www.w3.org/1999/xhtml" style="display: inline-block; white-space: nowrap;"><span class="edgeLabel"></span></div></foreignObject></g></g><g class="edgeLabel"><g class="label" transform="translate(0, 0)"><foreignObject width="0" height="0"><div xmlns="http://www.w3.org/1999/xhtml" style="display: inline-block; white-space: nowrap;"><span class="edgeLabel"></span></div></foreignObject></g></g><g class="edgeLabel" transform="translate(537.7434844970703, 1650)"><g class="label" transform="translate(-24.953125, -10)"><foreignObject width="49.90625" height="20"><div xmlns="http://www.w3.org/1999/xhtml" style="display: inline-block; white-space: nowrap;"><span class="edgeLabel">สมบูรณ์</span></div></foreignObject></g></g><g class="edgeLabel" transform="translate(992.8216094970703, 1650)"><g class="label" transform="translate(-47.171875, -10)"><foreignObject width="94.34375" height="20"><div xmlns="http://www.w3.org/1999/xhtml" style="display: inline-block; white-space: nowrap;"><span class="edgeLabel">ชำรุด/มีปัญหา</span></div></foreignObject></g></g><g class="edgeLabel" transform="translate(673.1015625, 314.921875)"><g class="label" transform="translate(-64.6640625, -10)"><foreignObject width="129.328125" height="20"><div xmlns="http://www.w3.org/1999/xhtml" style="display: inline-block; white-space: nowrap;"><span class="edgeLabel">ต้องการชุด Box Set</span></div></foreignObject></g></g><g class="edgeLabel"><g class="label" transform="translate(0, 0)"><foreignObject width="0" height="0"><div xmlns="http://www.w3.org/1999/xhtml" style="display: inline-block; white-space: nowrap;"><span class="edgeLabel"></span></div></foreignObject></g></g><g class="edgeLabel"><g class="label" transform="translate(0, 0)"><foreignObject width="0" height="0"><div xmlns="http://www.w3.org/1999/xhtml" style="display: inline-block; white-space: nowrap;"><span class="edgeLabel"></span></div></foreignObject></g></g><g class="edgeLabel"><g class="label" transform="translate(0, 0)"><foreignObject width="0" height="0"><div xmlns="http://www.w3.org/1999/xhtml" style="display: inline-block; white-space: nowrap;"><span class="edgeLabel"></span></div></foreignObject></g></g><g class="edgeLabel" transform="translate(1272.5286407470703, 419.921875)"><g class="label" transform="translate(-70.515625, -10)"><foreignObject width="141.03125" height="20"><div xmlns="http://www.w3.org/1999/xhtml" style="display: inline-block; white-space: nowrap;"><span class="edgeLabel">ต้องการซ้อมนอกเวลา</span></div></foreignObject></g></g><g class="edgeLabel"><g class="label" transform="translate(0, 0)"><foreignObject width="0" height="0"><div xmlns="http://www.w3.org/1999/xhtml" style="display: inline-block; white-space: nowrap;"><span class="edgeLabel"></span></div></foreignObject></g></g><g class="edgeLabel"><g class="label" transform="translate(0, 0)"><foreignObject width="0" height="0"><div xmlns="http://www.w3.org/1999/xhtml" style="display: inline-block; white-space: nowrap;"><span class="edgeLabel"></span></div></foreignObject></g></g><g class="edgeLabel" transform="translate(1207.5169219970703, 1140.21875)"><g class="label" transform="translate(-25.609375, -10)"><foreignObject width="51.21875" height="20"><div xmlns="http://www.w3.org/1999/xhtml" style="display: inline-block; white-space: nowrap;"><span class="edgeLabel">รอบเต็ม</span></div></foreignObject></g></g><g class="edgeLabel"><g class="label" transform="translate(0, 0)"><foreignObject width="0" height="0"><div xmlns="http://www.w3.org/1999/xhtml" style="display: inline-block; white-space: nowrap;"><span class="edgeLabel"></span></div></foreignObject></g></g><g class="edgeLabel" transform="translate(1621.9895782470703, 1140.21875)"><g class="label" transform="translate(-22.21875, -10)"><foreignObject width="44.4375" height="20"><div xmlns="http://www.w3.org/1999/xhtml" style="display: inline-block; white-space: nowrap;"><span class="edgeLabel">มีที่ว่าง</span></div></foreignObject></g></g><g class="edgeLabel"><g class="label" transform="translate(0, 0)"><foreignObject width="0" height="0"><div xmlns="http://www.w3.org/1999/xhtml" style="display: inline-block; white-space: nowrap;"><span class="edgeLabel"></span></div></foreignObject></g></g><g class="edgeLabel"><g class="label" transform="translate(0, 0)"><foreignObject width="0" height="0"><div xmlns="http://www.w3.org/1999/xhtml" style="display: inline-block; white-space: nowrap;"><span class="edgeLabel"></span></div></foreignObject></g></g><g class="edgeLabel"><g class="label" transform="translate(0, 0)"><foreignObject width="0" height="0"><div xmlns="http://www.w3.org/1999/xhtml" style="display: inline-block; white-space: nowrap;"><span class="edgeLabel"></span></div></foreignObject></g></g><g class="edgeLabel"><g class="label" transform="translate(0, 0)"><foreignObject width="0" height="0"><div xmlns="http://www.w3.org/1999/xhtml" style="display: inline-block; white-space: nowrap;"><span class="edgeLabel"></span></div></foreignObject></g></g><g class="edgeLabel"><g class="label" transform="translate(0, 0)"><foreignObject width="0" height="0"><div xmlns="http://www.w3.org/1999/xhtml" style="display: inline-block; white-space: nowrap;"><span class="edgeLabel"></span></div></foreignObject></g></g><g class="edgeLabel"><g class="label" transform="translate(0, 0)"><foreignObject width="0" height="0"><div xmlns="http://www.w3.org/1999/xhtml" style="display: inline-block; white-space: nowrap;"><span class="edgeLabel"></span></div></foreignObject></g></g><g class="edgeLabel"><g class="label" transform="translate(0, 0)"><foreignObject width="0" height="0"><div xmlns="http://www.w3.org/1999/xhtml" style="display: inline-block; white-space: nowrap;"><span class="edgeLabel"></span></div></foreignObject></g></g></g><g class="nodes"><g class="node default terminator flowchart-label" id="flowchart-Start-0" data-node="true" data-id="Start" transform="translate(467.1302032470703, 18)"><rect style="" rx="18" ry="18" x="-173.8671875" y="-18" width="347.734375" height="36"></rect><g class="label" style="" transform="translate(-161.8671875, -10.5)"><rect></rect><foreignObject width="323.734375" height="21"><div xmlns="http://www.w3.org/1999/xhtml" style="display: inline-block; white-space: nowrap;"><span class="nodeLabel">🟢 เริ่มต้น: นิสิตล็อกอินเข้าระบบด้วยรหัสนิสิต</span></div></foreignObject></g></g><g class="node default decision flowchart-label" id="flowchart-SelectService-1" data-node="true" data-id="SelectService" transform="translate(467.1302032470703, 182.9609375)"><polygon points="96.9609375,0 193.921875,-96.9609375 96.9609375,-193.921875 0,-96.9609375" class="label-container" transform="translate(-96.9609375,96.9609375)" style=""></polygon><g class="label" style="" transform="translate(-61.9609375, -20)"><rect></rect><foreignObject width="123.921875" height="40"><div xmlns="http://www.w3.org/1999/xhtml" style="display: inline-block; white-space: nowrap;"><span class="nodeLabel">เลือกบริการ<br>ที่ต้องการใช้งาน?</span></div></foreignObject></g></g><g class="node default inputOutput flowchart-label" id="flowchart-ReqService-4" data-node="true" data-id="ReqService" transform="translate(218.75, 472.421875)"><polygon points="-11.666666666666666,0 275.1510416666667,0 292.6510416666667,-35 5.833333333333333,-35" class="label-container" transform="translate(-140.4921875,17.5)" style=""></polygon><g class="label" style="" transform="translate(-132.9921875, -10)"><rect></rect><foreignObject width="265.984375" height="20"><div xmlns="http://www.w3.org/1999/xhtml" style="display: inline-block; white-space: nowrap;"><span class="nodeLabel">1. ยืม-คืนครุภัณฑ์ และเบิกพัสดุสิ้นเปลือง</span></div></foreignObject></g></g><g class="node default process flowchart-label" id="flowchart-FillUnifiedForm-7" data-node="true" data-id="FillUnifiedForm" transform="translate(218.75, 557.421875)"><rect class="basic label-container" style="" rx="0" ry="0" x="-218.75" y="-17.5" width="437.5" height="35"></rect><g class="label" style="" transform="translate(-211.25, -10)"><rect></rect><foreignObject width="422.5" height="20"><div xmlns="http://www.w3.org/1999/xhtml" style="display: inline-block; white-space: nowrap;"><span class="nodeLabel">กรอกฟอร์ม One-Stop: เลือกวิชา, กำหนดวัตถุประสงค์, เลือกของ</span></div></foreignObject></g></g><g class="node default decision flowchart-label" id="flowchart-WaitApproval-10" data-node="true" data-id="WaitApproval" transform="translate(228.75, 735.046875)"><polygon points="110.125,0 220.25,-110.125 110.125,-220.25 0,-110.125" class="label-container" transform="translate(-110.125,110.125)" style=""></polygon><g class="label" style="" transform="translate(-75.125, -20)"><rect></rect><foreignObject width="150.25" height="40"><div xmlns="http://www.w3.org/1999/xhtml" style="display: inline-block; white-space: nowrap;"><span class="nodeLabel">อาจารย์และเจ้าหน้าที่<br>อนุมัติคำขอหรือไม่?</span></div></foreignObject></g></g><g class="node default warnProcess flowchart-label" id="flowchart-RejectReq-13" data-node="true" data-id="RejectReq" transform="translate(312.81640625, 1010.1953125)"><rect class="basic label-container" style="" rx="0" ry="0" x="-136.5703125" y="-18" width="273.140625" height="36"></rect><g class="label" style="" transform="translate(-129.0703125, -10.5)"><rect></rect><foreignObject width="258.140625" height="21"><div xmlns="http://www.w3.org/1999/xhtml" style="display: inline-block; white-space: nowrap;"><span class="nodeLabel">❌ ไม่อนุมัติ: ดูเหตุผลและแก้ไขส่งใหม่</span></div></foreignObject></g></g><g class="node default successProcess flowchart-label" id="flowchart-ApproveReq-18" data-node="true" data-id="ApproveReq" transform="translate(765.2825469970703, 1010.1953125)"><rect class="basic label-container" style="" rx="0" ry="0" x="-182.2265625" y="-18" width="364.453125" height="36"></rect><g class="label" style="" transform="translate(-174.7265625, -10.5)"><rect></rect><foreignObject width="349.453125" height="21"><div xmlns="http://www.w3.org/1999/xhtml" style="display: inline-block; white-space: nowrap;"><span class="nodeLabel">✅ อนุมัติคำขอ: สถานะ APPROVED พร้อมรับของ</span></div></foreignObject></g></g><g class="node default process flowchart-label" id="flowchart-PickItems-21" data-node="true" data-id="PickItems" transform="translate(765.2825469970703, 1193.21875)"><rect class="basic label-container" style="" rx="0" ry="0" x="-160.515625" y="-17.5" width="321.03125" height="35"></rect><g class="label" style="" transform="translate(-153.015625, -10)"><rect></rect><foreignObject width="306.03125" height="20"><div xmlns="http://www.w3.org/1999/xhtml" style="display: inline-block; white-space: nowrap;"><span class="nodeLabel">ติดต่อรับของที่ห้องแล็บพยาบาล ณ วันนัดหมาย</span></div></foreignObject></g></g><g class="node default process flowchart-label" id="flowchart-UseItems-24" data-node="true" data-id="UseItems" transform="translate(765.2825469970703, 1279.21875)"><rect class="basic label-container" style="" rx="0" ry="0" x="-138.5234375" y="-17.5" width="277.046875" height="35"></rect><g class="label" style="" transform="translate(-131.0234375, -10)"><rect></rect><foreignObject width="262.046875" height="20"><div xmlns="http://www.w3.org/1999/xhtml" style="display: inline-block; white-space: nowrap;"><span class="nodeLabel">นำอุปกรณ์ไปใช้ฝึกปฏิบัติการในคาบเรียน</span></div></foreignObject></g></g><g class="node default process flowchart-label" id="flowchart-ReturnItems-27" data-node="true" data-id="ReturnItems" transform="translate(765.2825469970703, 1364.71875)"><rect class="basic label-container" style="" rx="0" ry="0" x="-157.3984375" y="-17.5" width="314.796875" height="35"></rect><g class="label" style="" transform="translate(-149.8984375, -10)"><rect></rect><foreignObject width="299.796875" height="20"><div xmlns="http://www.w3.org/1999/xhtml" style="display: inline-block; white-space: nowrap;"><span class="nodeLabel">นำครุภัณฑ์ส่งคืน ณ เคาน์เตอร์แล็บตามกำหนด</span></div></foreignObject></g></g><g class="node default decision flowchart-label" id="flowchart-CheckCondition-30" data-node="true" data-id="CheckCondition" transform="translate(765.2825469970703, 1523.609375)"><polygon points="91.390625,0 182.78125,-91.390625 91.390625,-182.78125 0,-91.390625" class="label-container" transform="translate(-91.390625,91.390625)" style=""></polygon><g class="label" style="" transform="translate(-56.390625, -20)"><rect></rect><foreignObject width="112.78125" height="40"><div xmlns="http://www.w3.org/1999/xhtml" style="display: inline-block; white-space: nowrap;"><span class="nodeLabel">สภาพครุภัณฑ์<br>สมบูรณ์หรือไม่?</span></div></foreignObject></g></g><g class="node default successProcess flowchart-label" id="flowchart-ReturnOk-33" data-node="true" data-id="ReturnOk" transform="translate(537.7434844970703, 1702.5)"><rect class="basic label-container" style="" rx="0" ry="0" x="-203.1796875" y="-17.5" width="406.359375" height="35"></rect><g class="label" style="" transform="translate(-195.6796875, -10)"><rect></rect><foreignObject width="391.359375" height="20"><div xmlns="http://www.w3.org/1999/xhtml" style="display: inline-block; white-space: nowrap;"><span class="nodeLabel">เจ้าหน้าที่ตรวจรับครบถ้วน: คืนเสร็จสมบูรณ์ RETURNED</span></div></foreignObject></g></g><g class="node default warnProcess flowchart-label" id="flowchart-ReturnIssue-36" data-node="true" data-id="ReturnIssue" transform="translate(992.8216094970703, 1702.5)"><rect class="basic label-container" style="" rx="0" ry="0" x="-201.8984375" y="-17.5" width="403.796875" height="35"></rect><g class="label" style="" transform="translate(-194.3984375, -10)"><rect></rect><foreignObject width="388.796875" height="20"><div xmlns="http://www.w3.org/1999/xhtml" style="display: inline-block; white-space: nowrap;"><span class="nodeLabel">บันทึกอาการชำรุด / ส่งซ่อมบำรุง RETURNED_WITH_ISSUE</span></div></foreignObject></g></g><g class="node default inputOutput flowchart-label" id="flowchart-KitService-39" data-node="true" data-id="KitService" transform="translate(673.1015625, 367.421875)"><polygon points="-11.666666666666666,0 218.27604166666666,0 235.77604166666666,-35 5.833333333333333,-35" class="label-container" transform="translate(-112.0546875,17.5)" style=""></polygon><g class="label" style="" transform="translate(-104.5546875, -10)"><rect></rect><foreignObject width="209.109375" height="20"><div xmlns="http://www.w3.org/1999/xhtml" style="display: inline-block; white-space: nowrap;"><span class="nodeLabel">2. ชุดฝึกปฏิบัติการสำเร็จรูป Kits</span></div></foreignObject></g></g><g class="node default process flowchart-label" id="flowchart-SelectKit-42" data-node="true" data-id="SelectKit" transform="translate(673.1015625, 472.421875)"><rect class="basic label-container" style="" rx="0" ry="0" x="-181.859375" y="-17.5" width="363.71875" height="35"></rect><g class="label" style="" transform="translate(-174.359375, -10)"><rect></rect><foreignObject width="348.71875" height="20"><div xmlns="http://www.w3.org/1999/xhtml" style="display: inline-block; white-space: nowrap;"><span class="nodeLabel">เลือกชุดตามหัตถการ เช่น ชุดทำแผล, ชุดสวนปัสสาวะ</span></div></foreignObject></g></g><g class="node default process flowchart-label" id="flowchart-OneClickReq-45" data-node="true" data-id="OneClickReq" transform="translate(673.1015625, 557.421875)"><rect class="basic label-container" style="" rx="0" ry="0" x="-185.6015625" y="-17.5" width="371.203125" height="35"></rect><g class="label" style="" transform="translate(-178.1015625, -10)"><rect></rect><foreignObject width="356.203125" height="20"><div xmlns="http://www.w3.org/1999/xhtml" style="display: inline-block; white-space: nowrap;"><span class="nodeLabel">กดขอเบิกแบบ One-Click: ระบบดึงพัสดุทั้งชุดอัตโนมัติ</span></div></foreignObject></g></g><g class="node default inputOutput flowchart-label" id="flowchart-BookingService-50" data-node="true" data-id="BookingService" transform="translate(1272.5286407470703, 557.421875)"><polygon points="-11.666666666666666,0 287.8854166666667,0 305.3854166666667,-35 5.833333333333333,-35" class="label-container" transform="translate(-146.859375,17.5)" style=""></polygon><g class="label" style="" transform="translate(-139.359375, -10)"><rect></rect><foreignObject width="278.71875" height="20"><div xmlns="http://www.w3.org/1999/xhtml" style="display: inline-block; white-space: nowrap;"><span class="nodeLabel">3. ขอเข้าฝึกปฏิบัติด้วยตนเอง จองห้องแล็บ</span></div></foreignObject></g></g><g class="node default process flowchart-label" id="flowchart-SelectSlot-53" data-node="true" data-id="SelectSlot" transform="translate(1272.5286407470703, 735.046875)"><rect class="basic label-container" style="" rx="0" ry="0" x="-153.4140625" y="-17.5" width="306.828125" height="35"></rect><g class="label" style="" transform="translate(-145.9140625, -10)"><rect></rect><foreignObject width="291.828125" height="20"><div xmlns="http://www.w3.org/1999/xhtml" style="display: inline-block; white-space: nowrap;"><span class="nodeLabel">เลือกห้องแล็บ วันที่ และรอบเวลาที่เปิดบริการ</span></div></foreignObject></g></g><g class="node default decision flowchart-label" id="flowchart-CheckSlot-56" data-node="true" data-id="CheckSlot" transform="translate(1207.5169219970703, 1010.1953125)"><polygon points="95.0234375,0 190.046875,-95.0234375 95.0234375,-190.046875 0,-95.0234375" class="label-container" transform="translate(-95.0234375,95.0234375)" style=""></polygon><g class="label" style="" transform="translate(-60.0234375, -20)"><rect></rect><foreignObject width="120.046875" height="40"><div xmlns="http://www.w3.org/1999/xhtml" style="display: inline-block; white-space: nowrap;"><span class="nodeLabel">รอบเวลาดังกล่าว<br>มีที่ว่างหรือไม่?</span></div></foreignObject></g></g><g class="node default warnProcess flowchart-label" id="flowchart-SlotFull-59" data-node="true" data-id="SlotFull" transform="translate(1272.5286407470703, 1193.21875)"><rect class="basic label-container" style="" rx="0" ry="0" x="-148.015625" y="-18" width="296.03125" height="36"></rect><g class="label" style="" transform="translate(-140.515625, -10.5)"><rect></rect><foreignObject width="281.03125" height="21"><div xmlns="http://www.w3.org/1999/xhtml" style="display: inline-block; white-space: nowrap;"><span class="nodeLabel">❌ รอบเต็ม: กรุณาเลือกรอบอื่นหรือห้องอื่น</span></div></foreignObject></g></g><g class="node default process flowchart-label" id="flowchart-ConfirmBooking-64" data-node="true" data-id="ConfirmBooking" transform="translate(1621.9895782470703, 1193.21875)"><rect class="basic label-container" style="" rx="0" ry="0" x="-151.4453125" y="-17.5" width="302.890625" height="35"></rect><g class="label" style="" transform="translate(-143.9453125, -10)"><rect></rect><foreignObject width="287.890625" height="20"><div xmlns="http://www.w3.org/1999/xhtml" style="display: inline-block; white-space: nowrap;"><span class="nodeLabel">ยืนยันการจอง: ระบุวิชา และอาจารย์ที่ปรึกษา</span></div></foreignObject></g></g><g class="node default doc flowchart-label" id="flowchart-GetTicket-67" data-node="true" data-id="GetTicket" transform="translate(1621.9895782470703, 1279.21875)"><rect class="basic label-container" style="" rx="0" ry="0" x="-172" y="-18" width="344" height="36"></rect><g class="label" style="" transform="translate(-164.5, -10.5)"><rect></rect><foreignObject width="329" height="21"><div xmlns="http://www.w3.org/1999/xhtml" style="display: inline-block; white-space: nowrap;"><span class="nodeLabel">📄 ได้รับ E-Ticket พร้อม QR Code ประจำการจอง</span></div></foreignObject></g></g><g class="node default process flowchart-label" id="flowchart-ArriveLab-70" data-node="true" data-id="ArriveLab" transform="translate(1621.9895782470703, 1364.71875)"><rect class="basic label-container" style="" rx="0" ry="0" x="-153.2265625" y="-17.5" width="306.453125" height="35"></rect><g class="label" style="" transform="translate(-145.7265625, -10)"><rect></rect><foreignObject width="291.453125" height="20"><div xmlns="http://www.w3.org/1999/xhtml" style="display: inline-block; white-space: nowrap;"><span class="nodeLabel">เดินทางมาถึงหน้าห้องแล็บตามวัน-เวลาที่จอง</span></div></foreignObject></g></g><g class="node default process flowchart-label" id="flowchart-ScanQR-73" data-node="true" data-id="ScanQR" transform="translate(1621.9895782470703, 1523.609375)"><rect class="basic label-container" style="" rx="0" ry="0" x="-166.0859375" y="-17.5" width="332.171875" height="35"></rect><g class="label" style="" transform="translate(-158.5859375, -10)"><rect></rect><foreignObject width="317.171875" height="20"><div xmlns="http://www.w3.org/1999/xhtml" style="display: inline-block; white-space: nowrap;"><span class="nodeLabel">สแกน QR Code Check-in เพื่อเข้าห้องปฏิบัติการ</span></div></foreignObject></g></g><g class="node default successProcess flowchart-label" id="flowchart-CompletePractice-76" data-node="true" data-id="CompletePractice" transform="translate(1621.9895782470703, 1702.5)"><rect class="basic label-container" style="" rx="0" ry="0" x="-199.703125" y="-17.5" width="399.40625" height="35"></rect><g class="label" style="" transform="translate(-192.203125, -10)"><rect></rect><foreignObject width="384.40625" height="20"><div xmlns="http://www.w3.org/1999/xhtml" style="display: inline-block; white-space: nowrap;"><span class="nodeLabel">เสร็จสิ้นการฝึกซ้อม บันทึกสถิติชั่วโมงฝึก COMPLETED</span></div></foreignObject></g></g><g class="node default terminator flowchart-label" id="flowchart-EndSuccess-79" data-node="true" data-id="EndSuccess" transform="translate(992.8216094970703, 1788)"><rect style="" rx="18" ry="18" x="-136.9765625" y="-18" width="273.953125" height="36"></rect><g class="label" style="" transform="translate(-124.9765625, -10.5)"><rect></rect><foreignObject width="249.953125" height="21"><div xmlns="http://www.w3.org/1999/xhtml" style="display: inline-block; white-space: nowrap;"><span class="nodeLabel">🔴 สิ้นสุด: การใช้งานระบบสมบูรณ์</span></div></foreignObject></g></g></g></g></g></svg>